<svg xmlns="http://www.w3.org/2000/svg" width="256" height="256"><path fill="#1976D2" fill-opacity=".016" fill-rule="evenodd" d="M0 128.004v128.004l128.25-.254 128.25-.254.254-127.75L257.008 0H0zm.485.496c0 70.4.119 99.053.265 63.672s.146-92.98 0-128S.485 58.1.485 128.5"/><path fill="#1976D2" fill-opacity=".159" fill-rule="evenodd" d="M64 1.606C43.923 6.989 23.508 26.002 15.645 46.641 8.835 64.516 6.47 81.636 7.307 107c1.689 51.184 22.849 95.65 50.45 106.019 25.363 9.528 57.52-6.558 80.368-40.204 20.55-30.26 26.387-72.107 15.387-110.315-8.015-27.839-24.525-47.331-48.257-56.975C92.351.282 75.064-1.36 64 1.606m118.206 162.951c-8.64 2.325-16.24 6.572-22.925 12.811-27.555 25.714-13.304 68.951 25.432 77.159 35.124 7.443 68.311-19.578 63.216-51.47-2.984-18.68-19.138-34.933-38.728-38.966-7.239-1.49-20.584-1.26-26.995.466"/><path fill="#1976D2" fill-opacity=".284" fill-rule="evenodd" d="M66 1.495C47.698 5.624 29.242 20.511 19.661 38.872-4.055 84.323 7.618 169.624 42.048 202.465c25.266 24.099 63.152 13.736 92.438-25.284 16.196-21.581 23.901-45.826 23.89-75.181-.017-45.551-17.679-79.541-48.876-94.057C94.868 1.134 78.41-1.305 66 1.495"/><path fill="#1976D2" fill-opacity=".146" fill-rule="evenodd" d="M67.64 1.551C43.777 6.295 22.684 26.598 14.188 53c-5.435 16.89-7.841 39.889-6.21 59.354 2.12 25.293 7.304 45.432 16.511 64.146 9.265 18.832 20.326 30.949 32.511 35.616 11.807 4.523 28.138 3.382 40.429-2.824 29.481-14.887 52.732-48.436 59.143-85.338 2.496-14.367 1.54-40.875-1.978-54.808-5.419-21.466-11.896-33.67-24.549-46.256-7.134-7.096-10.316-9.427-18.1-13.26C96.281 1.918 80.377-.982 67.64 1.551"/></svg>